<svg xmlns="http://www.w3.org/2000/svg" viewBox="0 0 64.01 64"><g id="Layer_2" data-name="Layer 2"><g id="Layer_1-2" data-name="Layer 1"><g id="Ethereum_ETH" data-name="Ethereum ETH"><path d="m63 39.74a32 32 0 1 1 -23.26-38.74 32 32 0 0 1 23.26 38.74z" fill="#6e7cca"></path><g opacity=".24"><path d="m63 39.74a32 32 0 0 1 -30.94 24.26 32.4 32.4 0 0 1 -7.8-1 32 32 0 0 1 -8.74-58.42 32 32 0 0 1 47.48 35.16z" fill="#fff"></path></g><g opacity=".3"><path d="m62.09 21.13-61.68 16a32 32 0 0 1 61.68-16z" fill="#fff"></path></g><path d="m57.22 38.29a26 26 0 1 1 -18.94-31.51 26 26 0 0 1 18.94 31.51z" fill="#6e7cca"></path><path d="m32 39 .26.25 11.66-6.89-11.64-19.36-.26.86z" fill="#fffdfe"></path><path d="m32.28 39.25v-26.25l-11.67 19.36z" fill="#b0e7ff"></path><path d="m32.13 50.58.15.42 11.72-16.43-11.72 6.89-.15.17z" fill="#fffdff"></path><path d="m20.61 34.57 11.67 16.43v-9.54z" fill="#b0e7ff"></path><path d="m32.28 27.06v12.19l11.66-6.89z" fill="#fffdff"></path><path d="m32.28 27.06-11.67 5.3 11.67 6.89z" fill="#c8f7f7"></path></g></g></g></svg>